<svg xmlns="http://www.w3.org/2000/svg" width="810" height="990"><style>.t{dominant-baseline:central;font-variant-ligatures:none;white-space:pre;font-family:Consolas,Courier New,Monaco,monospace;font-size:16px}.b{font-weight:700}:root{color-scheme:light dark;background:#fff}.cDA627D{fill:#da627d}.c0{fill:#000}.cFCA17D{fill:#fca17d}.c86BBD8{fill:#86bbd8}.c06969A{fill:#06969a}.c4{fill:#2472c8}.ca{fill:#666}.c1{fill:#cd3131}.c7{fill:#e5e5e5}.c2{fill:#0dbc79}.c3{fill:#e5e510}.c6{fill:#11a8cd}.bDA627D{fill:#da627d}.bFCA17D{fill:#fca17d}.b86BBD8{fill:#86bbd8}.b06969A{fill:#06969a}.b33658A{fill:#33658a}.b0{fill:#000}.b1{fill:#cd3131}.b2{fill:#0dbc79}.b3{fill:#e5e510}.b4{fill:#2472c8}.b5{fill:#bc3fbc}.b6{fill:#11a8cd}.b7{fill:#e5e5e5}.ba{fill:#666}.bb{fill:#f14c4c}.bc{fill:#23d18b}.bd{fill:#f5f543}.be{fill:#3b8eea}.bf{fill:#d670d6}.bg{fill:#29b8db}.bh{fill:#e5e5e5}svg text{fill:#000}@media (prefers-color-scheme:dark){:root{background:#181818}.cDA627D{fill:#da627d}.c0{fill:#e5e5e5}.cFCA17D{fill:#fca17d}.c86BBD8{fill:#86bbd8}.c06969A{fill:#06969a}.c4{fill:#2472c8}.ca{fill:#e5e5e5}.c1{fill:#cd3131}.c7{fill:#000}.c2{fill:#0dbc79}.c3{fill:#e5e510}.c6{fill:#11a8cd}.bDA627D{fill:#da627d}.bFCA17D{fill:#fca17d}.b86BBD8{fill:#86bbd8}.b06969A{fill:#06969a}.b33658A{fill:#33658a}.b0{fill:#e5e5e5}.b1{fill:#cd3131}.b2{fill:#0dbc79}.b3{fill:#e5e510}.b4{fill:#2472c8}.b5{fill:#bc3fbc}.b6{fill:#11a8cd}.b7{fill:#000}.ba{fill:#e5e5e5}.bb{fill:#f14c4c}.bc{fill:#23d18b}.bd{fill:#f5f543}.be{fill:#3b8eea}.bf{fill:#d670d6}.bg{fill:#29b8db}.bh{fill:#666}svg text{fill:#e5e5e5}}</style><text y="10" class="t"/><path d="M0 20h10v18H0Z" class="bDA627D"/><text y="28" class="t cDA627D"/><path d="M10 20h130v18H10Z" class="bDA627D"/><text x="10" y="28" class="t c0"><tspan textLength="130">RT-BE88U-A1F0</tspan></text><path d="M140 20h10v18h-10Z" class="bDA627D"/><text x="140" y="28" class="t cDA627D"><tspan textLength="10"></tspan></text><path d="M150 20h150v18H150Z" class="bDA627D"/><text x="150" y="28" class="t c0"><tspan textLength="150">/tmp/home/root </tspan></text><path d="M300 20h10v18h-10Z" class="bFCA17D"/><text x="300" y="28" class="t cDA627D"><tspan textLength="10"></tspan></text><path d="M310 20h10v18h-10Z" class="b86BBD8"/><text x="310" y="28" class="t cFCA17D"><tspan textLength="10"></tspan></text><path d="M320 20h10v18h-10Z" class="b06969A"/><text x="320" y="28" class="t c86BBD8"><tspan textLength="10"></tspan></text><path d="M330 20h10v18h-10Z" class="b33658A"/><text x="330" y="28" class="t c06969A"><tspan textLength="10"></tspan></text><text x="340" y="28" class="t"/><text y="46" class="t"/><text x="10" y="46" class="t c4"><tspan textLength="80">neofetch</tspan></text><text x="90" y="46" class="t"/><text y="64" class="t ca"><tspan textLength="240">        #####           </tspan></text><text x="240" y="64" class="t c1 b"><tspan textLength="30">ace</tspan></text><text x="270" y="64" class="t"><tspan textLength="10">@</tspan></text><text x="280" y="64" class="t c1 b"><tspan textLength="130">RT-BE88U-A1F0</tspan></text><text x="410" y="64" class="t"/><text y="82" class="t ca"><tspan textLength="240">       #######          </tspan></text><text x="240" y="82" class="t"><tspan textLength="580">-------                                                   </tspan></text><text y="100" class="t ca"><tspan textLength="90">       ##</tspan></text><text x="90" y="100" class="t c7"><tspan textLength="10">O</tspan></text><text x="100" y="100" class="t ca"><tspan textLength="10">#</tspan></text><text x="110" y="100" class="t c7"><tspan textLength="10">O</tspan></text><text x="120" y="100" class="t ca"><tspan textLength="120">##          </tspan></text><text x="240" y="100" class="t c2 b"><tspan textLength="40">OS: </tspan></text><text x="280" y="100" class="t"><tspan textLength="540">Linux aarch64                                         </tspan></text><text y="118" class="t ca"><tspan textLength="80">       #</tspan></text><text x="80" y="118" class="t c3"><tspan textLength="50">#####</tspan></text><text x="130" y="118" class="t ca"><tspan textLength="110">#          </tspan></text><text x="240" y="118" class="t c2 b"><tspan textLength="80">Kernel: </tspan></text><text x="320" y="118" class="t"><tspan textLength="500">4.19.294                                          </tspan></text><text y="136" class="t ca"><tspan textLength="70">     ##</tspan></text><text x="70" y="136" class="t c7"><tspan textLength="20">##</tspan></text><text x="90" y="136" class="t c3"><tspan textLength="30">###</tspan></text><text x="120" y="136" class="t c7"><tspan textLength="20">##</tspan></text><text x="140" y="136" class="t ca"><tspan textLength="100">##        </tspan></text><text x="240" y="136" class="t c2 b"><tspan textLength="80">Uptime: </tspan></text><text x="320" y="136" class="t"><tspan textLength="500">11 days, 12 hours, 12 mins                        </tspan></text><text y="154" class="t ca"><tspan textLength="50">    #</tspan></text><text x="50" y="154" class="t c7"><tspan textLength="100">##########</tspan></text><text x="150" y="154" class="t ca"><tspan textLength="90">##       </tspan></text><text x="240" y="154" class="t c2 b"><tspan textLength="70">Shell: </tspan></text><text x="310" y="154" class="t"><tspan textLength="510">fish 4.1.2                                         </tspan></text><text y="172" class="t ca"><tspan textLength="40">   #</tspan></text><text x="40" y="172" class="t c7"><tspan textLength="120">############</tspan></text><text x="160" y="172" class="t ca"><tspan textLength="80">##      </tspan></text><text x="240" y="172" class="t c2 b"><tspan textLength="100">Terminal: </tspan></text><text x="340" y="172" class="t"><tspan textLength="480">XTerm                                           </tspan></text><text y="190" class="t ca"><tspan textLength="40">   #</tspan></text><text x="40" y="190" class="t c7"><tspan textLength="120">############</tspan></text><text x="160" y="190" class="t ca"><tspan textLength="80">###     </tspan></text><text x="240" y="190" class="t c2 b"><tspan textLength="90">Disk(/): </tspan></text><text x="330" y="190" class="t"><tspan textLength="490">59 MiB / 59 MiB (100%)                           </tspan></text><text y="208" class="t c3"><tspan textLength="40">  ##</tspan></text><text x="40" y="208" class="t ca"><tspan textLength="10">#</tspan></text><text x="50" y="208" class="t c7"><tspan textLength="110">###########</tspan></text><text x="160" y="208" class="t ca"><tspan textLength="20">##</tspan></text><text x="180" y="208" class="t c3"><tspan textLength="60">#     </tspan></text><text x="240" y="208" class="t c2 b"><tspan textLength="80">Memory: </tspan></text><text x="320" y="208" class="t"><tspan textLength="500">886.6 MiB / 2 GiB                                 </tspan></text><text y="226" class="t c3"><tspan textLength="60">######</tspan></text><text x="60" y="226" class="t ca"><tspan textLength="10">#</tspan></text><text x="70" y="226" class="t c7"><tspan textLength="70">#######</tspan></text><text x="140" y="226" class="t ca"><tspan textLength="10">#</tspan></text><text x="150" y="226" class="t c3"><tspan textLength="90">######   </tspan></text><text x="240" y="226" class="t c2 b"><tspan textLength="130">Temperature: </tspan></text><text x="370" y="226" class="t"><tspan textLength="450">CPU (avg of 1 sensors): 61.9°C               </tspan></text><text y="244" class="t c3"><tspan textLength="70">#######</tspan></text><text x="70" y="244" class="t ca"><tspan textLength="10">#</tspan></text><text x="80" y="244" class="t c7"><tspan textLength="50">#####</tspan></text><text x="130" y="244" class="t ca"><tspan textLength="10">#</tspan></text><text x="140" y="244" class="t c3"><tspan textLength="100">#######   </tspan></text><text x="240" y="244" class="t c2 b"><tspan textLength="100">Local IP: </tspan></text><text x="340" y="244" class="t"><tspan textLength="480">198.18.0.1                                      </tspan></text><text y="262" class="t c3"><tspan textLength="70">  #####</tspan></text><text x="70" y="262" class="t ca"><tspan textLength="70">#######</tspan></text><text x="140" y="262" class="t c3"><tspan textLength="100">#####     </tspan></text><text x="240" y="262" class="t c2 b"><tspan textLength="90">Network: </tspan></text><text x="330" y="262" class="t"><tspan textLength="490">eth0 (192.168.1.3)                               </tspan></text><text y="280" class="t c3"/><text x="240" y="280" class="t c2 b"/><text x="330" y="280" class="t"><tspan textLength="490">br0 (192.168.50.1)                               </tspan></text><text y="298" class="t c3"/><text x="240" y="298" class="t c2 b"><tspan textLength="80">Locale: </tspan></text><text x="320" y="298" class="t"><tspan textLength="500">en_US.UTF-8                                       </tspan></text><text y="316" class="t c3"/><text x="240" y="316" class="t"/><text y="334" class="t c3"/><path d="M240 326h30v18h-30Z" class="b0"/><text x="240" y="334" class="t"/><path d="M270 326h30v18h-30Z" class="b1"/><text x="270" y="334" class="t"/><path d="M300 326h30v18h-30Z" class="b2"/><text x="300" y="334" class="t"/><path d="M330 326h30v18h-30Z" class="b3"/><text x="330" y="334" class="t"/><path d="M360 326h30v18h-30Z" class="b4"/><text x="360" y="334" class="t"/><path d="M390 326h30v18h-30Z" class="b5"/><text x="390" y="334" class="t"/><path d="M420 326h30v18h-30Z" class="b6"/><text x="420" y="334" class="t"/><path d="M450 326h30v18h-30Z" class="b7"/><text x="450" y="334" class="t"/><text x="480" y="334" class="t"/><text y="352" class="t c3"/><path d="M240 344h30v18h-30Z" class="ba"/><text x="240" y="352" class="t"/><path d="M270 344h30v18h-30Z" class="bb"/><text x="270" y="352" class="t"/><path d="M300 344h30v18h-30Z" class="bc"/><text x="300" y="352" class="t"/><path d="M330 344h30v18h-30Z" class="bd"/><text x="330" y="352" class="t"/><path d="M360 344h30v18h-30Z" class="be"/><text x="360" y="352" class="t"/><path d="M390 344h30v18h-30Z" class="bf"/><text x="390" y="352" class="t"/><path d="M420 344h30v18h-30Z" class="bg"/><text x="420" y="352" class="t"/><path d="M450 344h30v18h-30Z" class="bh"/><text x="450" y="352" class="t"/><text x="480" y="352" class="t"/><text y="370" class="t"/><text y="388" class="t"/><path d="M0 398h10v18H0Z" class="bDA627D"/><text y="406" class="t cDA627D"/><path d="M10 398h130v18H10Z" class="bDA627D"/><text x="10" y="406" class="t c0"><tspan textLength="130">RT-BE88U-A1F0</tspan></text><path d="M140 398h10v18h-10Z" class="bDA627D"/><text x="140" y="406" class="t cDA627D"><tspan textLength="10"></tspan></text><path d="M150 398h150v18H150Z" class="bDA627D"/><text x="150" y="406" class="t c0"><tspan textLength="150">/tmp/home/root </tspan></text><path d="M300 398h10v18h-10Z" class="bFCA17D"/><text x="300" y="406" class="t cDA627D"><tspan textLength="10"></tspan></text><path d="M310 398h10v18h-10Z" class="b86BBD8"/><text x="310" y="406" class="t cFCA17D"><tspan textLength="10"></tspan></text><path d="M320 398h10v18h-10Z" class="b06969A"/><text x="320" y="406" class="t c86BBD8"><tspan textLength="10"></tspan></text><path d="M330 398h10v18h-10Z" class="b33658A"/><text x="330" y="406" class="t c06969A"><tspan textLength="10"></tspan></text><text x="340" y="406" class="t"/><text y="424" class="t"/><text x="10" y="424" class="t c4"><tspan textLength="50">crash</tspan></text><text x="60" y="424" class="t"/><text x="70" y="424" class="t c6"><tspan textLength="70">install</tspan></text><text x="140" y="424" class="t"/><text y="442" class="t"><tspan textLength="820">Scheduled task already exists                                                     </tspan></text><text y="460" class="t"><tspan textLength="820">Scheduled task already exists                                                     </tspan></text><text y="478" class="t"><tspan textLength="820">Installation completed successfully!                                              </tspan></text><text y="496" class="t"/><path d="M0 506h10v18H0Z" class="bDA627D"/><text y="514" class="t cDA627D"/><path d="M10 506h130v18H10Z" class="bDA627D"/><text x="10" y="514" class="t c0"><tspan textLength="130">RT-BE88U-A1F0</tspan></text><path d="M140 506h10v18h-10Z" class="bDA627D"/><text x="140" y="514" class="t cDA627D"><tspan textLength="10"></tspan></text><path d="M150 506h150v18H150Z" class="bDA627D"/><text x="150" y="514" class="t c0"><tspan textLength="150">/tmp/home/root </tspan></text><path d="M300 506h10v18h-10Z" class="bFCA17D"/><text x="300" y="514" class="t cDA627D"><tspan textLength="10"></tspan></text><path d="M310 506h10v18h-10Z" class="b86BBD8"/><text x="310" y="514" class="t cFCA17D"><tspan textLength="10"></tspan></text><path d="M320 506h10v18h-10Z" class="b06969A"/><text x="320" y="514" class="t c86BBD8"><tspan textLength="10"></tspan></text><path d="M330 506h10v18h-10Z" class="b33658A"/><text x="330" y="514" class="t c06969A"><tspan textLength="10"></tspan></text><text x="340" y="514" class="t"/><text y="532" class="t"/><text x="10" y="532" class="t c4"><tspan textLength="50">crash</tspan></text><text x="60" y="532" class="t"/><text x="70" y="532" class="t c6"><tspan textLength="100">update-url</tspan></text><text x="170" y="532" class="t"/><text y="550" class="t"><tspan textLength="820">Configuration updated successfully!                                               </tspan></text><text y="568" class="t"/><path d="M0 578h10v18H0Z" class="bDA627D"/><text y="586" class="t cDA627D"/><path d="M10 578h130v18H10Z" class="bDA627D"/><text x="10" y="586" class="t c0"><tspan textLength="130">RT-BE88U-A1F0</tspan></text><path d="M140 578h10v18h-10Z" class="bDA627D"/><text x="140" y="586" class="t cDA627D"><tspan textLength="10"></tspan></text><path d="M150 578h150v18H150Z" class="bDA627D"/><text x="150" y="586" class="t c0"><tspan textLength="150">/tmp/home/root </tspan></text><path d="M300 578h10v18h-10Z" class="bFCA17D"/><text x="300" y="586" class="t cDA627D"><tspan textLength="10"></tspan></text><path d="M310 578h10v18h-10Z" class="b86BBD8"/><text x="310" y="586" class="t cFCA17D"><tspan textLength="10"></tspan></text><path d="M320 578h10v18h-10Z" class="b06969A"/><text x="320" y="586" class="t c86BBD8"><tspan textLength="10"></tspan></text><path d="M330 578h10v18h-10Z" class="b33658A"/><text x="330" y="586" class="t c06969A"><tspan textLength="10"></tspan></text><text x="340" y="586" class="t"/><text y="604" class="t"/><text x="10" y="604" class="t c4"><tspan textLength="50">crash</tspan></text><text x="60" y="604" class="t"/><text x="70" y="604" class="t c6"><tspan textLength="50">start</tspan></text><text x="120" y="604" class="t"/><text y="622" class="t"><tspan textLength="820">Proxy service started successfully!                                               </tspan></text><text y="640" class="t"><tspan textLength="820">version : 0.1.0 (https://github.com/ahaoboy/crash)                                </tspan></text><text y="658" class="t"><tspan textLength="820">core    : Mihomo v1.19.16 (https://github.com/MetaCubeX/mihomo)                   </tspan></text><text y="676" class="t"><tspan textLength="820">pid     : 18818                                                                   </tspan></text><text y="694" class="t"><tspan textLength="820">memory  : 84.01 MB                                                                </tspan></text><text y="712" class="t"><tspan textLength="820">web     : Metacubexd (http://198.18.0.1:9090/ui)                                  </tspan></text><text y="730" class="t"><tspan textLength="820">status  : ✅ 10h 28m 17s (max: 12h)                                                </tspan></text><text y="748" class="t"><tspan textLength="820">proxy   : gh-proxy                                                                </tspan></text><text y="766" class="t"><tspan textLength="820">user    : ace                                                                     </tspan></text><text y="784" class="t"><tspan textLength="820">config  : /jffs/crash_config (23.46 MB / 18.74 MB)                                </tspan></text><text y="802" class="t"/><path d="M0 812h10v18H0Z" class="bDA627D"/><text y="820" class="t cDA627D"/><path d="M10 812h130v18H10Z" class="bDA627D"/><text x="10" y="820" class="t c0"><tspan textLength="130">RT-BE88U-A1F0</tspan></text><path d="M140 812h10v18h-10Z" class="bDA627D"/><text x="140" y="820" class="t cDA627D"><tspan textLength="10"></tspan></text><path d="M150 812h150v18H150Z" class="bDA627D"/><text x="150" y="820" class="t c0"><tspan textLength="150">/tmp/home/root </tspan></text><path d="M300 812h10v18h-10Z" class="bFCA17D"/><text x="300" y="820" class="t cDA627D"><tspan textLength="10"></tspan></text><path d="M310 812h10v18h-10Z" class="b86BBD8"/><text x="310" y="820" class="t cFCA17D"><tspan textLength="10"></tspan></text><path d="M320 812h10v18h-10Z" class="b06969A"/><text x="320" y="820" class="t c86BBD8"><tspan textLength="10"></tspan></text><path d="M330 812h10v18h-10Z" class="b33658A"/><text x="330" y="820" class="t c06969A"><tspan textLength="10"></tspan></text><text x="340" y="820" class="t"/><text y="838" class="t"/><text x="10" y="838" class="t c4"><tspan textLength="40">curl</tspan></text><text x="50" y="838" class="t"/><text x="60" y="838" class="t c6"><tspan textLength="100">google.com</tspan></text><text x="160" y="838" class="t"/><text y="856" class="t"><tspan textLength="820">&lt;HTML&gt;&lt;HEAD&gt;&lt;meta http-equiv="content-type" content="text/html;charset=utf-8"&gt;    </tspan></text><text y="874" class="t"><tspan textLength="820">&lt;TITLE&gt;301 Moved&lt;/TITLE&gt;&lt;/HEAD&gt;&lt;BODY&gt;                                             </tspan></text><text y="892" class="t"><tspan textLength="820">&lt;H1&gt;301 Moved&lt;/H1&gt;                                                                </tspan></text><text y="910" class="t"><tspan textLength="820">The document has moved                                                            </tspan></text><text y="928" class="t"><tspan textLength="820">&lt;A HREF="http://www.google.com/"&gt;here&lt;/A&gt;.                                        </tspan></text><text y="946" class="t"><tspan textLength="820">&lt;/BODY&gt;&lt;/HTML&gt;                                                                    </tspan></text><text y="964" class="t"/><text y="982" class="t"/><text y="1000" class="t"/></svg>