<svg xmlns="http://www.w3.org/2000/svg" width="790" height="1242"><style>.t{dominant-baseline:central;font-variant-ligatures:none;white-space:pre;font-family:Consolas,Courier New,Monaco;font-size:16px}.b{font-weight:700}:root{color-scheme:light dark;background:#fff}.cDA627D{fill:#da627d}.c0{fill:#000}.cFCA17D{fill:#fca17d}.c86BBD8{fill:#86bbd8}.c06969A{fill:#06969a}.c4{fill:#2472c8}.ca{fill:#666}.c1{fill:#cd3131}.c7{fill:#e5e5e5}.c2{fill:#0dbc79}.c3{fill:#e5e510}.c6{fill:#11a8cd}.bDA627D{fill:#da627d}.bFCA17D{fill:#fca17d}.b86BBD8{fill:#86bbd8}.b06969A{fill:#06969a}.b33658A{fill:#33658a}.b0{fill:#000}.b1{fill:#cd3131}.b2{fill:#0dbc79}.b3{fill:#e5e510}.b4{fill:#2472c8}.b5{fill:#bc3fbc}.b6{fill:#11a8cd}.b7{fill:#e5e5e5}.ba{fill:#666}.bb{fill:#f14c4c}.bc{fill:#23d18b}.bd{fill:#f5f543}.be{fill:#3b8eea}.bf{fill:#d670d6}.bg{fill:#29b8db}.bh{fill:#e5e5e5}svg text{fill:#000}@media (prefers-color-scheme:dark){:root{background:#181818}.cDA627D{fill:#da627d}.c0{fill:#e5e5e5}.cFCA17D{fill:#fca17d}.c86BBD8{fill:#86bbd8}.c06969A{fill:#06969a}.c4{fill:#2472c8}.ca{fill:#e5e5e5}.c1{fill:#cd3131}.c7{fill:#000}.c2{fill:#0dbc79}.c3{fill:#e5e510}.c6{fill:#11a8cd}.bDA627D{fill:#da627d}.bFCA17D{fill:#fca17d}.b86BBD8{fill:#86bbd8}.b06969A{fill:#06969a}.b33658A{fill:#33658a}.b0{fill:#e5e5e5}.b1{fill:#cd3131}.b2{fill:#0dbc79}.b3{fill:#e5e510}.b4{fill:#2472c8}.b5{fill:#bc3fbc}.b6{fill:#11a8cd}.b7{fill:#000}.ba{fill:#e5e5e5}.bb{fill:#f14c4c}.bc{fill:#23d18b}.bd{fill:#f5f543}.be{fill:#3b8eea}.bf{fill:#d670d6}.bg{fill:#29b8db}.bh{fill:#666}svg text{fill:#e5e5e5}}</style><text y="10" class="t"/><path d="M0 20h10v18H0Z" class="bDA627D"/><text y="28" class="t cDA627D"/><path d="M10 20h130v18H10Z" class="bDA627D"/><text x="10" y="28" class="t c0"><tspan textLength="130">RT-BE88U-A1F0</tspan></text><path d="M140 20h10v18h-10Z" class="bDA627D"/><text x="140" y="28" class="t cDA627D"><tspan textLength="10"></tspan></text><path d="M150 20h150v18H150Z" class="bDA627D"/><text x="150" y="28" class="t c0"><tspan textLength="150">/tmp/home/root </tspan></text><path d="M300 20h10v18h-10Z" class="bFCA17D"/><text x="300" y="28" class="t cDA627D"><tspan textLength="10"></tspan></text><path d="M310 20h10v18h-10Z" class="b86BBD8"/><text x="310" y="28" class="t cFCA17D"><tspan textLength="10"></tspan></text><path d="M320 20h10v18h-10Z" class="b06969A"/><text x="320" y="28" class="t c86BBD8"><tspan textLength="10"></tspan></text><path d="M330 20h10v18h-10Z" class="b33658A"/><text x="330" y="28" class="t c06969A"><tspan textLength="10"></tspan></text><text x="340" y="28" class="t"/><text y="46" class="t"/><text y="64" class="t c4"><tspan textLength="80">neofetch</tspan></text><text x="80" y="64" class="t"/><text y="82" class="t"/><text y="100" class="t ca"><tspan textLength="240">        #####           </tspan></text><text x="240" y="100" class="t c1 b"><tspan textLength="30">ace</tspan></text><text x="270" y="100" class="t"><tspan textLength="10">@</tspan></text><text x="280" y="100" class="t c1 b"><tspan textLength="130">RT-BE88U-A1F0</tspan></text><text x="410" y="100" class="t"/><text y="118" class="t ca"><tspan textLength="240">       #######          </tspan></text><text x="240" y="118" class="t"><tspan textLength="560">-------                                                 </tspan></text><text y="136" class="t ca"><tspan textLength="90">       ##</tspan></text><text x="90" y="136" class="t c7"><tspan textLength="10">O</tspan></text><text x="100" y="136" class="t ca"><tspan textLength="10">#</tspan></text><text x="110" y="136" class="t c7"><tspan textLength="10">O</tspan></text><text x="120" y="136" class="t ca"><tspan textLength="120">##          </tspan></text><text x="240" y="136" class="t c2 b"><tspan textLength="40">OS: </tspan></text><text x="280" y="136" class="t"><tspan textLength="520">Linux aarch64                                       </tspan></text><text y="154" class="t ca"><tspan textLength="80">       #</tspan></text><text x="80" y="154" class="t c3"><tspan textLength="50">#####</tspan></text><text x="130" y="154" class="t ca"><tspan textLength="110">#          </tspan></text><text x="240" y="154" class="t c2 b"><tspan textLength="80">Kernel: </tspan></text><text x="320" y="154" class="t"><tspan textLength="480">4.19.294                                        </tspan></text><text y="172" class="t ca"><tspan textLength="70">     ##</tspan></text><text x="70" y="172" class="t c7"><tspan textLength="20">##</tspan></text><text x="90" y="172" class="t c3"><tspan textLength="30">###</tspan></text><text x="120" y="172" class="t c7"><tspan textLength="20">##</tspan></text><text x="140" y="172" class="t ca"><tspan textLength="100">##        </tspan></text><text x="240" y="172" class="t c2 b"><tspan textLength="80">Uptime: </tspan></text><text x="320" y="172" class="t"><tspan textLength="480">9 days, 7 hours, 47 mins                        </tspan></text><text y="190" class="t ca"><tspan textLength="50">    #</tspan></text><text x="50" y="190" class="t c7"><tspan textLength="100">##########</tspan></text><text x="150" y="190" class="t ca"><tspan textLength="90">##       </tspan></text><text x="240" y="190" class="t c2 b"><tspan textLength="70">Shell: </tspan></text><text x="310" y="190" class="t"><tspan textLength="490">fish 4.1.2                                       </tspan></text><text y="208" class="t ca"><tspan textLength="40">   #</tspan></text><text x="40" y="208" class="t c7"><tspan textLength="120">############</tspan></text><text x="160" y="208" class="t ca"><tspan textLength="80">##      </tspan></text><text x="240" y="208" class="t c2 b"><tspan textLength="100">Terminal: </tspan></text><text x="340" y="208" class="t"><tspan textLength="460">XTerm                                         </tspan></text><text y="226" class="t ca"><tspan textLength="40">   #</tspan></text><text x="40" y="226" class="t c7"><tspan textLength="120">############</tspan></text><text x="160" y="226" class="t ca"><tspan textLength="80">###     </tspan></text><text x="240" y="226" class="t c2 b"><tspan textLength="90">Disk(/): </tspan></text><text x="330" y="226" class="t"><tspan textLength="470">59 MiB / 59 MiB (100%)                         </tspan></text><text y="244" class="t c3"><tspan textLength="40">  ##</tspan></text><text x="40" y="244" class="t ca"><tspan textLength="10">#</tspan></text><text x="50" y="244" class="t c7"><tspan textLength="110">###########</tspan></text><text x="160" y="244" class="t ca"><tspan textLength="20">##</tspan></text><text x="180" y="244" class="t c3"><tspan textLength="60">#     </tspan></text><text x="240" y="244" class="t c2 b"><tspan textLength="80">Memory: </tspan></text><text x="320" y="244" class="t"><tspan textLength="480">944.5 MiB / 2 GiB                               </tspan></text><text y="262" class="t c3"><tspan textLength="60">######</tspan></text><text x="60" y="262" class="t ca"><tspan textLength="10">#</tspan></text><text x="70" y="262" class="t c7"><tspan textLength="70">#######</tspan></text><text x="140" y="262" class="t ca"><tspan textLength="10">#</tspan></text><text x="150" y="262" class="t c3"><tspan textLength="90">######   </tspan></text><text x="240" y="262" class="t c2 b"><tspan textLength="130">Temperature: </tspan></text><text x="370" y="262" class="t"><tspan textLength="430">CPU (avg of 1 sensors): 61.8°C             </tspan></text><text y="280" class="t c3"><tspan textLength="70">#######</tspan></text><text x="70" y="280" class="t ca"><tspan textLength="10">#</tspan></text><text x="80" y="280" class="t c7"><tspan textLength="50">#####</tspan></text><text x="130" y="280" class="t ca"><tspan textLength="10">#</tspan></text><text x="140" y="280" class="t c3"><tspan textLength="100">#######   </tspan></text><text x="240" y="280" class="t c2 b"><tspan textLength="100">Local IP: </tspan></text><text x="340" y="280" class="t"><tspan textLength="460">198.18.0.1                                    </tspan></text><text y="298" class="t c3"><tspan textLength="70">  #####</tspan></text><text x="70" y="298" class="t ca"><tspan textLength="70">#######</tspan></text><text x="140" y="298" class="t c3"><tspan textLength="100">#####     </tspan></text><text x="240" y="298" class="t c2 b"><tspan textLength="90">Network: </tspan></text><text x="330" y="298" class="t"><tspan textLength="470">eth0 (192.168.1.3)                             </tspan></text><text y="316" class="t c3"/><text x="240" y="316" class="t c2 b"/><text x="330" y="316" class="t"><tspan textLength="470">br0 (192.168.50.1)                             </tspan></text><text y="334" class="t c3"/><text x="240" y="334" class="t c2 b"><tspan textLength="80">Locale: </tspan></text><text x="320" y="334" class="t"><tspan textLength="480">en_US.UTF-8                                     </tspan></text><text y="352" class="t c3"/><text x="240" y="352" class="t"/><text y="370" class="t c3"/><path d="M240 362h30v18h-30Z" class="b0"/><text x="240" y="370" class="t"/><path d="M270 362h30v18h-30Z" class="b1"/><text x="270" y="370" class="t"/><path d="M300 362h30v18h-30Z" class="b2"/><text x="300" y="370" class="t"/><path d="M330 362h30v18h-30Z" class="b3"/><text x="330" y="370" class="t"/><path d="M360 362h30v18h-30Z" class="b4"/><text x="360" y="370" class="t"/><path d="M390 362h30v18h-30Z" class="b5"/><text x="390" y="370" class="t"/><path d="M420 362h30v18h-30Z" class="b6"/><text x="420" y="370" class="t"/><path d="M450 362h30v18h-30Z" class="b7"/><text x="450" y="370" class="t"/><text x="480" y="370" class="t"/><text y="388" class="t c3"/><path d="M240 380h30v18h-30Z" class="ba"/><text x="240" y="388" class="t"/><path d="M270 380h30v18h-30Z" class="bb"/><text x="270" y="388" class="t"/><path d="M300 380h30v18h-30Z" class="bc"/><text x="300" y="388" class="t"/><path d="M330 380h30v18h-30Z" class="bd"/><text x="330" y="388" class="t"/><path d="M360 380h30v18h-30Z" class="be"/><text x="360" y="388" class="t"/><path d="M390 380h30v18h-30Z" class="bf"/><text x="390" y="388" class="t"/><path d="M420 380h30v18h-30Z" class="bg"/><text x="420" y="388" class="t"/><path d="M450 380h30v18h-30Z" class="bh"/><text x="450" y="388" class="t"/><text x="480" y="388" class="t"/><text y="406" class="t"/><text y="424" class="t"/><text y="442" class="t"/><path d="M0 452h10v18H0Z" class="bDA627D"/><text y="460" class="t cDA627D"/><path d="M10 452h130v18H10Z" class="bDA627D"/><text x="10" y="460" class="t c0"><tspan textLength="130">RT-BE88U-A1F0</tspan></text><path d="M140 452h10v18h-10Z" class="bDA627D"/><text x="140" y="460" class="t cDA627D"><tspan textLength="10"></tspan></text><path d="M150 452h150v18H150Z" class="bDA627D"/><text x="150" y="460" class="t c0"><tspan textLength="150">/tmp/home/root </tspan></text><path d="M300 452h10v18h-10Z" class="bFCA17D"/><text x="300" y="460" class="t cDA627D"><tspan textLength="10"></tspan></text><path d="M310 452h10v18h-10Z" class="b86BBD8"/><text x="310" y="460" class="t cFCA17D"><tspan textLength="10"></tspan></text><path d="M320 452h10v18h-10Z" class="b06969A"/><text x="320" y="460" class="t c86BBD8"><tspan textLength="10"></tspan></text><path d="M330 452h10v18h-10Z" class="b33658A"/><text x="330" y="460" class="t c06969A"><tspan textLength="10"></tspan></text><text x="340" y="460" class="t"/><text y="478" class="t"/><text y="496" class="t c4"><tspan textLength="50">crash</tspan></text><text x="50" y="496" class="t"/><text x="60" y="496" class="t c6"><tspan textLength="70">install</tspan></text><text x="130" y="496" class="t"/><text y="514" class="t"/><text y="532" class="t"><tspan textLength="800">Scheduled task already exists                                                   </tspan></text><text y="550" class="t"><tspan textLength="800">Scheduled task already exists                                                   </tspan></text><text y="568" class="t"><tspan textLength="800">Installation completed successfully!                                            </tspan></text><text y="586" class="t"/><text y="604" class="t"/><path d="M0 614h10v18H0Z" class="bDA627D"/><text y="622" class="t cDA627D"/><path d="M10 614h130v18H10Z" class="bDA627D"/><text x="10" y="622" class="t c0"><tspan textLength="130">RT-BE88U-A1F0</tspan></text><path d="M140 614h10v18h-10Z" class="bDA627D"/><text x="140" y="622" class="t cDA627D"><tspan textLength="10"></tspan></text><path d="M150 614h150v18H150Z" class="bDA627D"/><text x="150" y="622" class="t c0"><tspan textLength="150">/tmp/home/root </tspan></text><path d="M300 614h10v18h-10Z" class="bFCA17D"/><text x="300" y="622" class="t cDA627D"><tspan textLength="10"></tspan></text><path d="M310 614h10v18h-10Z" class="b86BBD8"/><text x="310" y="622" class="t cFCA17D"><tspan textLength="10"></tspan></text><path d="M320 614h10v18h-10Z" class="b06969A"/><text x="320" y="622" class="t c86BBD8"><tspan textLength="10"></tspan></text><path d="M330 614h10v18h-10Z" class="b33658A"/><text x="330" y="622" class="t c06969A"><tspan textLength="10"></tspan></text><text x="340" y="622" class="t"/><text y="640" class="t"/><text y="658" class="t c4"><tspan textLength="50">crash</tspan></text><text x="50" y="658" class="t"/><text x="60" y="658" class="t c6"><tspan textLength="100">update-url</tspan></text><text x="160" y="658" class="t"/><text y="676" class="t"/><text y="694" class="t"><tspan textLength="800">Configuration updated successfully!                                             </tspan></text><text y="712" class="t"/><text y="730" class="t"/><path d="M0 740h10v18H0Z" class="bDA627D"/><text y="748" class="t cDA627D"/><path d="M10 740h130v18H10Z" class="bDA627D"/><text x="10" y="748" class="t c0"><tspan textLength="130">RT-BE88U-A1F0</tspan></text><path d="M140 740h10v18h-10Z" class="bDA627D"/><text x="140" y="748" class="t cDA627D"><tspan textLength="10"></tspan></text><path d="M150 740h150v18H150Z" class="bDA627D"/><text x="150" y="748" class="t c0"><tspan textLength="150">/tmp/home/root </tspan></text><path d="M300 740h10v18h-10Z" class="bFCA17D"/><text x="300" y="748" class="t cDA627D"><tspan textLength="10"></tspan></text><path d="M310 740h10v18h-10Z" class="b86BBD8"/><text x="310" y="748" class="t cFCA17D"><tspan textLength="10"></tspan></text><path d="M320 740h10v18h-10Z" class="b06969A"/><text x="320" y="748" class="t c86BBD8"><tspan textLength="10"></tspan></text><path d="M330 740h10v18h-10Z" class="b33658A"/><text x="330" y="748" class="t c06969A"><tspan textLength="10"></tspan></text><text x="340" y="748" class="t"/><text y="766" class="t"/><text y="784" class="t c4"><tspan textLength="50">crash</tspan></text><text x="50" y="784" class="t"/><text x="60" y="784" class="t c6"><tspan textLength="50">start</tspan></text><text x="110" y="784" class="t"/><text y="802" class="t"/><text y="820" class="t"><tspan textLength="800">Proxy service started successfully!                                             </tspan></text><text y="838" class="t"><tspan textLength="800">version : 0.1.0 (https://github.com/ahaoboy/crash)                              </tspan></text><text y="856" class="t"><tspan textLength="800">core    : Mihomo v1.19.15 (https://github.com/MetaCubeX/mihomo)                 </tspan></text><text y="874" class="t"><tspan textLength="800">pid     : 16862                                                                 </tspan></text><text y="892" class="t"><tspan textLength="800">memory  : 91.51 MB                                                              </tspan></text><text y="910" class="t"><tspan textLength="800">web     : Metacubexd (http://198.18.0.1:9090/ui)                                </tspan></text><text y="928" class="t"><tspan textLength="800">status  : ✅ 7h 43m 25s (max: 12h)                                               </tspan></text><text y="946" class="t"><tspan textLength="800">proxy   : gh-proxy                                                              </tspan></text><text y="964" class="t"><tspan textLength="800">user    : ace                                                                   </tspan></text><text y="982" class="t"><tspan textLength="800">config  : /jffs/crash_config (54.56 MB / 450.56 kB)                             </tspan></text><text y="1000" class="t"/><text y="1018" class="t"/><path d="M0 1028h10v18H0Z" class="bDA627D"/><text y="1036" class="t cDA627D"/><path d="M10 1028h130v18H10Z" class="bDA627D"/><text x="10" y="1036" class="t c0"><tspan textLength="130">RT-BE88U-A1F0</tspan></text><path d="M140 1028h10v18h-10Z" class="bDA627D"/><text x="140" y="1036" class="t cDA627D"><tspan textLength="10"></tspan></text><path d="M150 1028h150v18H150Z" class="bDA627D"/><text x="150" y="1036" class="t c0"><tspan textLength="150">/tmp/home/root </tspan></text><path d="M300 1028h10v18h-10Z" class="bFCA17D"/><text x="300" y="1036" class="t cDA627D"><tspan textLength="10"></tspan></text><path d="M310 1028h10v18h-10Z" class="b86BBD8"/><text x="310" y="1036" class="t cFCA17D"><tspan textLength="10"></tspan></text><path d="M320 1028h10v18h-10Z" class="b06969A"/><text x="320" y="1036" class="t c86BBD8"><tspan textLength="10"></tspan></text><path d="M330 1028h10v18h-10Z" class="b33658A"/><text x="330" y="1036" class="t c06969A"><tspan textLength="10"></tspan></text><text x="340" y="1036" class="t"/><text y="1054" class="t"/><text y="1072" class="t c4"><tspan textLength="40">curl</tspan></text><text x="40" y="1072" class="t"/><text x="50" y="1072" class="t c6"><tspan textLength="100">google.com</tspan></text><text x="150" y="1072" class="t"/><text y="1090" class="t"/><text y="1108" class="t"><tspan textLength="800">&lt;HTML&gt;&lt;HEAD&gt;&lt;meta http-equiv="content-type" content="text/html;charset=utf-8"&gt;  </tspan></text><text y="1126" class="t"><tspan textLength="800">&lt;TITLE&gt;301 Moved&lt;/TITLE&gt;&lt;/HEAD&gt;&lt;BODY&gt;                                           </tspan></text><text y="1144" class="t"><tspan textLength="800">&lt;H1&gt;301 Moved&lt;/H1&gt;                                                              </tspan></text><text y="1162" class="t"><tspan textLength="800">The document has moved                                                          </tspan></text><text y="1180" class="t"><tspan textLength="800">&lt;A HREF="http://www.google.com/"&gt;here&lt;/A&gt;.                                      </tspan></text><text y="1198" class="t"><tspan textLength="800">&lt;/BODY&gt;&lt;/HTML&gt;                                                                  </tspan></text><text y="1216" class="t"/><text y="1234" class="t"/><text y="1252" class="t"/></svg>